<?xml version="1.0" encoding="utf-8"?>
<!-- Generator: Adobe Illustrator 19.0.0, SVG Export Plug-In . SVG Version: 6.00 Build 0)  -->
<svg version="1.1" id="Layer_1" xmlns="http://www.w3.org/2000/svg" xmlns:xlink="http://www.w3.org/1999/xlink" x="0px" y="0px"
	 viewBox="25 51 684 684" style="enable-background:new 25 51 684 684;" xml:space="preserve">
<style type="text/css">
	.st0{fill:#E2DEDF;}
	.st1{fill:#858E8D;}
</style>
<path class="st0" d="M85.9,109.1c27,7.3,52.5,2.7,77.8-2.3c13-2.6,24.4,1.3,35.3,7.4c6.7,3.9,13.2,5.7,20.9,4.5
	c12.4-2.2,22.9,1.3,31.2,11.6c3.1,4,7.4,5,12.4,3.2c5-1.8,10.2-3.2,15.3-4.8c12.1-3.9,22.8-0.8,32.2,6.8c1.1,1,2.1,1.8,3.2,2.7
	c10.8,8.1,11.6,8.3,23.3,1.2c8.8-5.3,18.3-6,27.1-0.7c11.2,6.6,22.1,14.1,32.7,21.5c4.3,3,8.1,5.6,13.6,3.9c2.5-0.8,5.5-0.4,8.3-1.1
	c9.8-1.9,18.6,1.1,26.4,6.7c10.4,7.4,19.1,16.6,26.3,27.3c2.2,3.5,6.9,6,10.9,7c16.5,3.1,29.5,10.2,35.7,27
	c2.9,7.7,5.8,15.1,8.4,22.8c1.4,4,3.7,7,8.4,7.2c23.1,2,31.2,15.5,35.6,35.5c0.7,3.2,1,6.7,1.5,10c1.6,8.2,4.7,15.1,12.2,20.4
	c13.2,9.2,20.7,22.7,25.5,37.3c6.7,21.8,12.8,43.9,17,66.5c2.3,12.7,0.9,26.3,0.8,39.2c-0.4,33.6-1.7,67.2-1.9,100.7
	c-0.1,17.7,1.1,35.3,1.3,53c0.2,12,3.3,22,12.6,30.5c5.9,5.3,5.3,8.4-0.4,14.8c-2.7,3.1-5.7,6.1-8,9.5c-2.7,4-5.1,3.6-8.8,1
	c-11.3-8.1-22.4-16.4-34.3-23.8c-15.8-10.1-34.2-10.2-52.2-12.1c-20-1.9-40.2-5.2-60.1-8.1c-29.1-4.6-58.2-9.8-87.3-14.3
	c-11.6-1.8-23.7-2.6-35.4-4.3c-2.8-0.4-6.1-1.1-8.2-2.9c-5.1-4.5-11-6.9-17.5-8.4c-15.5-3.7-29.6-10.4-42.5-19.5
	c-14.2-9.9-27.8-20.4-41.2-31.2c-5-4.1-9.2-10.1-12.1-15.9c-6-13.1-17.4-20.4-28-28.6c-4.4-3.4-8.8-6.9-13.2-10.3
	c-9.1-7-14.4-16.6-14.4-27.7c0.1-18.4-7.8-32.6-19-45.8c-2.4-2.7-4.6-5.3-7.1-8c-8.4-9.4-11.7-20.1-11.5-32.7
	c0.2-14.8-0.1-29.3-0.6-44.2c-0.1-2.7-2.1-6.2-4.4-7.7c-15.8-10.5-17.8-21.4-7.4-37.1c3.2-5.1,4.9-11.4,6.5-17.1
	c0.5-1.8-0.4-4.3-1.5-6c-9.9-15.1-14.7-31.8-15.1-50.1c-0.1-10.4-3.2-20.9-4.4-31.3c-0.4-4.3-0.5-8.9,0.4-13
	c3.2-14.6-2.3-26.9-10.3-38.3c-6-8.5-13-16.3-14.9-26.9C86.4,112.4,86.4,111.3,85.9,109.1z"/>
<path class="st1" d="M75,98c28,7.6,54.6,2.8,80.9-2.4c13.6-2.7,25.4,1.4,36.7,7.7c7,4.1,13.7,5.9,21.8,4.6
	c12.9-2.3,23.8,1.4,32.5,12c3.2,4.2,7.7,5.2,12.9,3.4c5.2-1.9,10.7-3.3,15.9-5c12.6-4,23.7-0.8,33.5,7.1c1.2,1,2.2,1.8,3.4,2.8
	c11.2,8.5,12,8.6,24.2,1.3c9.2-5.6,19-6.2,28.2-0.7c11.7,6.8,23,14.7,34,22.4c4.5,3.1,8.4,5.8,14.1,4c2.6-0.8,5.7-0.5,8.6-1.2
	c10.2-2,19.3,1.2,27.5,6.9c10.8,7.7,19.8,17.3,27.3,28.4c2.3,3.6,7.2,6.3,11.3,7.3c17.1,3.2,30.7,10.6,37.1,28c3,8,6,15.7,8.7,23.8
	c1.5,4.2,3.8,7.3,8.7,7.5c24,2.1,32.5,16.1,37,37c0.7,3.4,1,6.9,1.5,10.4c1.6,8.6,4.9,15.7,12.7,21.2c13.7,9.6,21.6,23.6,26.4,38.8
	c7,22.7,13.3,45.7,17.7,69.2c2.4,13.2,0.9,27.3,0.8,40.8c-0.5,35-1.7,69.9-2,104.8c-0.1,18.4,1.1,36.7,1.4,55.2
	c0.2,12.5,3.5,22.8,13.1,31.8c6.1,5.6,5.5,8.7-0.4,15.4c-2.8,3.2-5.9,6.4-8.3,9.9c-2.8,4.2-5.3,3.7-9.1,1
	c-11.7-8.4-23.3-17-35.7-24.9c-16.5-10.5-35.6-10.6-54.3-12.6c-20.8-2-41.8-5.4-62.5-8.5c-30.2-4.8-60.5-10.2-90.8-14.8
	c-12-1.9-24.7-2.7-36.8-4.5c-2.9-0.4-6.4-1.2-8.6-3c-5.3-4.6-11.5-7.2-18.2-8.7c-16.1-3.8-30.8-10.8-44.2-20.3
	c-14.7-10.3-28.9-21.2-42.9-32.4c-5.2-4.3-9.6-10.5-12.6-16.6c-6.3-13.7-18.1-21.2-29.1-29.8c-4.6-3.6-9.2-7.2-13.7-10.7
	c-9.5-7.3-15-17.4-14.9-28.8c0.1-19.1-8.1-33.9-19.8-47.6c-2.5-2.8-4.7-5.6-7.4-8.3c-8.7-9.7-12.2-20.9-11.9-34
	c0.2-15.4-0.1-30.5-0.6-46c-0.1-2.8-2.2-6.5-4.6-8c-16.4-10.9-18.5-22.2-7.6-38.6c3.4-5.3,5.1-11.8,6.7-17.8
	c0.5-1.9-0.5-4.5-1.5-6.3c-10.3-15.7-15.3-33-15.7-52.1c-0.1-10.8-3.3-21.8-4.6-32.6c-0.5-4.5-0.5-9.3,0.4-13.6
	c3.3-15.2-2.4-27.9-10.7-39.9c-6.2-8.8-13.6-16.9-15.5-27.9C75.5,101.5,75.4,100.2,75,98z M448.3,299.2c-0.5,0.1-1.3,0.3-1.7,0.4
	c2.6,11.9,6.5,23.8,7.6,35.8c1.2,13.7,1.8,27.9-0.2,41.2c-2.6,19.5-7.8,38.4-11.5,57.8c-0.6,2.9,0.1,7.3,2.1,9.5
	c15,15.6,30.8,30.4,46.3,45.9c3.8,3.7,5.8,3.6,7.7-1.5c11.5-28.8,20-58.3,24.5-88.8c0.4-2.6-0.5-6-2.3-7.9
	c-8.3-9.8-16.5-19.6-25.3-28.8c-11.6-11.9-21.2-25.4-23.4-42c-4-32.2-7.7-64.4-9.6-96.9c-1.3-22.1-12.4-36-29.5-47
	c-3.9-2.5-6.8-1.1-7.6,3.7c-0.5,4.5-1.5,9-1.9,13.4c-0.4,8.5-2.6,16.8,0.2,25.7C432.4,246.3,440.3,272.7,448.3,299.2z M446.5,477.6
	c-1.5-2.3-2.2-3.3-3.2-4.4c-13.6-13.1-27-26.1-40.3-39.3c-4.3-4.2-8.8-4.6-14.2-4.6c-10.6,0.3-21.1,0.1-31.4,0.3
	c-12.8,0.2-25.8-3.4-38.5,2.8c-4.5,1.9-9.4,3.4-14.4,4.1c-17.8,2.9-35.9,5.3-53.8,7.9c-15.5,2.5-30.8,1.1-46-2.5
	c-7.5-1.7-14.6-3.9-21.8-5.9c-0.5,0.3-0.6,0.6-1,1.2c3.9,6.1,2.5,15.6,11.3,18.1c37.5,11.5,75.6,20.9,114.6,25.1
	c18.2,1.8,36.5,2.2,54.9,2.5c20.8,0.3,41.7,0.1,62.6-0.7C431.9,481.7,438.6,479.2,446.5,477.6z M557.2,558.5
	c0.7-0.2,1.5-0.3,2.5-0.7c0-3.6-0.3-7.1-0.3-10.7c-0.5-14.9-1-30.1-0.9-45.2c0.1-21.6,7.6-41.9,12.3-62.4
	c2.8-12.8,4.7-25.9,4.9-39.2c0.2-18.9-1.7-38-2.7-56.9c-0.3-3.6-0.2-7.8-2.2-10.2c-8.4-10.2-9.7-22.6-12.4-34.8
	c-1.2-5.6-3.4-10.9-6.1-15.9c-0.9-1.6-3.8-2.2-6.1-3.2c-0.3,2.1-1.2,4-0.9,6c1.2,11.4,3.5,22.8,4.2,34.5c2.4,39-1.4,77.5-11,114.9
	c-6.1,23.5-14.9,46.3-22.7,69.4c-1.4,4.1-3.4,7.6,0.7,11.8c9.3,8.9,17.9,18.2,26.8,27.5C547.9,548.1,552.5,553.3,557.2,558.5z
	 M412.3,258.5c-11.9,15.4-22.7,29.7-33.8,44.1c-5.4,7-7.4,15.1-7.7,23.8c-0.5,12.8-1.5,25.5-2.1,38.3c-0.1,2.8,0.5,6.8,2.5,8.6
	c15.6,15.5,31.5,30.2,47.4,45.3c3.3,3.1,4.9,1.7,5.9-2c1.5-6.9,3.2-13.7,4.5-20.6c4.1-18.2,7.7-36.5,4.2-55.1
	c-5.1-25.7-11.1-51-17.2-76.2C415.3,262.8,413.7,261.2,412.3,258.5z M373.8,407.6c-2.1-2.5-2.8-3.5-3.7-4.3
	c-17.1-15.9-34.1-32-51.4-47.2c-2.8-2.5-7.9-2.6-11.9-2.5c-16.1,0.5-32,2.5-47.9,2.4c-25.5-0.3-50.1-5.9-73.2-16.7
	c-17.2-7.9-32.4-19.1-45.1-33.2c-1.7-1.9-4.2-3.9-5.8-0.3c-0.9,1.7-0.6,5.6,0.7,6.7c12.1,10.9,24.9,21.1,37.1,32.5
	c28.7,26.9,62.1,44,100,52.7c28.1,6.6,56.6,9.2,85,10.5C362.4,408.1,367.5,407.7,373.8,407.6z M345.5,352.3c0.7-0.9,1.6-1.9,2.4-2.8
	c0.1-1.8,0-3.6,0.3-5.5c1.4-12.5,1.5-25.3,4.6-37.3c1.6-7.7,1.7-14.4-1.8-20.9c-8.5-16.5-16.9-33.2-25.6-49.7
	c-11.7-22.4-18.8-46.3-18.6-71.3c0-11.7-4.6-18.7-13.4-24.3c-3.6-2.5-13.6-2.9-16.3,0.7c-1.6,1.9-0.8,6.6,0,9.4
	c9.2,34,18.8,67.5,22.4,102.5c1.4,14.5,2.7,28.9-0.7,43.2c-1.2,4.8-0.5,8,2.6,11.1c13.6,13.3,27.1,26.7,40.7,40
	C343.2,348.7,344.1,350.4,345.5,352.3z M194.1,130.1c0.2,0.9,0.1,3,0.9,4.4c10.8,19.8,13.3,41.1,11.9,63
	c-0.6,10.1-0.2,17.8,9.9,24.6c19.6,12.6,34.8,30.3,50.2,47.3c2.9,3.1,5.9,6.4,8.9,9.5c0.7-0.2,1.7-0.4,2.5-0.5
	c-0.4-6.1,0-12-0.5-17.9c-3.6-37.4-13.3-73.7-24.4-109.5c-0.7-2.5-3.8-4.6-6.2-6c-4.5-3.1-10-4.9-13.8-8.6c-5.6-5.4-11.7-7.9-19.5-7
	C208.2,130.2,201.5,130,194.1,130.1z M501.2,533c-0.5-1.4-0.5-2.2-0.8-2.6c-10.7-10.6-21.1-21.4-32-32c-1.6-1.5-4.9-1.7-7.2-1.3
	c-41.5,11.8-83.7,12.8-126.3,8.5c-4.5-0.5-9.5,1.8-13.7,3.7c-8.7,4.2-16.6,10.2-25.5,13.5c-13.8,5.1-28.4,8.3-42.8,12.1
	c-5.3,1.4-6.3,3.6-2.1,7.6c4.6,4.4,9.2,8.5,14.2,11.9c2.1,1.4,5.9,1.3,8.2,0.5c8.4-2.5,16.1-6.6,24.5-8.6c37-9.6,75-13.6,113.2-15.3
	c27.9-1,56.2-1,84,2.5C496.7,533.8,499,533.2,501.2,533z M612,624.4c0.7-0.2,1.5-0.3,2.1-0.6c0.3-2.1,0.9-4.3,0.9-6.4
	c-0.3-10.4-1.2-20.6-1.2-31c0.5-34,1.4-68.3,2-102.2c0.2-16.6,2.3-33.9-0.3-50.2c-3.5-21.7-10.9-43-16.6-64.1
	c-0.2-0.7-1-1.3-2.5-3.2c-0.1,5.6-0.7,9.6-0.4,13.7c2.7,25.4,0.2,49.8-7.2,74.1c-6.2,20.5-10.6,41.2-9.4,62.9
	c0.8,19.1,2.1,38.5,3.4,57.5c0.4,6.3,0.2,13.7,3.6,18.6C594.1,604.4,603.4,614.1,612,624.4z M369.8,275.2c3.5-2.8,5.3-3.9,6.6-5.6
	c4.6-5.8,9.4-11.7,13.4-17.7c2.1-3.3,4.4-6.7,4.8-10.5c3-19.8,5.8-39.5,8.4-59.4c0.1-1.8-2.3-4.4-4-5.7c-4.3-3.2-9.2-5.3-13.5-8.3
	c-9.5-6.4-18.6-13-28.2-18.8c-2.5-1.5-6.9-1.5-9.8-0.6c-5.5,1.7-10.7,4.6-15.6,7.5c-1.8,1.2-4.3,3.6-4.3,5c2,13.6,2,27.9,6.9,40.2
	C345.1,225.8,357.5,249.6,369.8,275.2z M134.9,242.3c-0.3,2.3-0.7,3.6-0.4,4.4c5.3,10.5,11.1,21,13,33.1c0,0.2,0.1,0.5,0.3,0.5
	c10.4,13.8,22.4,25.7,37.7,34.3c28.1,15.7,58.8,20.3,90.1,20c5.8,0,11.4-1,18.2-1.4c-1.4-2.7-1.9-4.5-3-5.5
	c-12.8-14.5-25.9-28.9-39.1-43.1c-1.6-1.7-5-2.3-7.6-2.5c-6.6-0.1-13.7,1.2-20.3,0.4c-23.9-2.8-45.1-13.7-65.8-25.9
	C150.4,252,143.1,247.3,134.9,242.3z M403.1,605c0.2,0.7,0.3,1.5,0.5,1.9c2.3,0.3,4.5,0.8,7,0.7c10.8-0.1,21.8-0.2,33-0.3
	c18.2-0.5,36.1-3,53.2-10.1c14-5.8,28-11.9,42.1-17.8c3.5-1.5,4.2-3.9,1.8-6.7c-4.2-5.3-8.5-10.7-16-11.8c-10.5-1.5-20.7-3.9-31-6
	c-10.4-2.3-19.3-0.3-28.3,6.4c-15,11.7-31,22.1-46.4,32.8C413.5,597.9,408.2,601.7,403.1,605z M438.4,554.7
	c-0.2-0.7-0.5-1.4-0.6-2.1c-1.5-0.2-2.9-0.6-4.5-0.5c-17.8,1.1-35.8,2.2-53.6,3.3c-28,1.8-55.7,6.7-82.7,13.7
	c-2.2,0.5-4,2.4-6.7,4.1c21.8,15.1,44,23.5,69,23.1c7.3-0.1,14.7,0.9,21.7-3.5c11.7-7.6,23.9-14.4,35.8-22
	C423.7,565.7,430.9,560.1,438.4,554.7z M521,278.5c-2.9-8.7-8.8-26.6-15.4-43.7c-2.4-6.4-5.8-12.9-13.8-14.7c-6.5-1.6-8.4,0-7.9,6.6
	c1.5,21,2.8,42.1,4.6,63.1c1.3,14.2,2.5,29,10.3,41.2c6.6,10.6,15.7,19.5,23.8,29.1c0.7,0.8,2.9,1.5,3.1,1.2c1-1.2,1.7-2.6,1.9-4
	C529,333.5,528,310.7,521,278.5z M184.6,169.7c-4.6-20.9-12.8-35.9-23.5-49.6c-1.1-1.6-4.1-2.5-5.9-2.3c-11.7,1.8-23.4,4.1-35.3,5.9
	c-4.6,0.8-4.2,3.2-2.2,6.1c3,4.5,6.2,8.8,9.4,12.9c15,19.1,32,36,51.4,50.8c1.5,1.2,3.5,1.8,4.9,2.7c0.8-2,2.2-3.8,2.1-5.6
	C185.6,182.8,184.9,174.3,184.6,169.7z M152.7,355.3c-1.3,3.6-1.9,4.9-1.9,6.6c-0.1,8.1-0.2,16.6,0,24.7c0.3,10.7,0.9,11,10.6,14.7
	c4.9,1.9,10.2,3.6,14.8,6.5c26.8,15.6,55.3,18.3,84.9,13.3c1.3-0.3,2.5-0.7,3.5-1.3c0.1-0.5,0.5-1.4,0.5-1.9
	C222.5,407.9,185.1,387.8,152.7,355.3z M125.4,175.6c-0.6,0.4-1.4,0.8-2,1c-0.1,2.1-0.6,3.9-0.2,5.9c0.8,6.4,1.4,13.2,3.4,19.7
	c1.1,4.1,3.7,8.6,6.7,11.3c20,16.2,41.8,29.5,65.4,39.7c8.6,3.7,18,5.7,26.9,8.6c0.5-0.9,1.1-2.1,1.5-2.9
	c-7.6-6.5-14.6-13.7-22.7-19.2c-23.4-16.5-47.3-32.8-67.9-52.8C133.1,182.8,129.3,179.3,125.4,175.6z M490.7,623.4
	c2.4,1.4,2.6,1.7,3.2,1.9c19.8,2.5,39.6,5.1,59.3,7.6c10,1.4,19.8,3,29.9,4.9c3.9,0.6,7.8,2.4,11.9,3.6c-0.5-3.3-1.5-5.6-3.1-7.2
	c-8.9-10.7-18.1-21.2-27.3-32c-6.1-7.3-7.1-7.1-15.9-3.1c-15.5,6.9-31.3,13.2-47.2,20C498.1,620,495.1,621.4,490.7,623.4z
	 M192.7,479.2c-0.4,0.6-0.7,0.9-1,1.5c1.4,2,2.8,4.5,4.9,6.1c11.5,9.6,23.2,19.1,35.1,28.3c1.5,1.2,4.4,1.3,6.4,0.9
	c13.4-2.9,26.6-5.8,39.7-9.2c3.8-1.1,7.2-3.1,12.3-5.5C256.2,493.6,224.4,486.3,192.7,479.2z"/>
</svg>
